<?xml version="1.0" encoding="utf-8"?>
<!-- Generator: Adobe Illustrator 16.0.0, SVG Export Plug-In . SVG Version: 6.00 Build 0)  -->
<!DOCTYPE svg PUBLIC "-//W3C//DTD SVG 1.0//EN" "http://www.w3.org/TR/2001/REC-SVG-20010904/DTD/svg10.dtd">
<svg version="1.0" id="Layer_1" xmlns="http://www.w3.org/2000/svg" xmlns:xlink="http://www.w3.org/1999/xlink" x="0px" y="0px"
	 width="14.366px" height="14.173px" viewBox="0 0 14.366 14.173" enable-background="new 0 0 14.366 14.173" xml:space="preserve">
<g>
	<path fill="#283583" d="M5.925,0.683H9.22l5.146,13.49h-3.431l-1.06-2.91H5.27l-1.041,2.91h-3.45L5.925,0.683z M8.854,8.411
		L7.583,4.846L6.291,8.411H8.854z"/>
	<path fill="#FFFFFF" d="M5.242,0h3.296l5.146,13.49h-3.431l-1.06-2.91H4.586l-1.041,2.91H0.097L5.242,0z M8.171,7.728L6.899,4.163
		L5.608,7.728H8.171z"/>
	<path fill="#32BEF0" d="M5.146,0h3.488l5.165,13.49H9.983L8.98,10.677H4.818L3.797,13.49H0L5.146,0z M3.488,13.047l1.021-2.814
		h4.76l1.021,2.814h2.872L8.345,0.443H5.454L0.636,13.047H3.488z M6.899,3.604l1.542,4.298H5.338L6.899,3.604z M7.824,7.458
		L6.899,4.895L5.974,7.458H7.824z"/>
</g>
</svg>
