<?xml version="1.0" encoding="utf-8"?>
<!-- Generator: Adobe Illustrator 16.0.0, SVG Export Plug-In . SVG Version: 6.00 Build 0)  -->
<!DOCTYPE svg PUBLIC "-//W3C//DTD SVG 1.0//EN" "http://www.w3.org/TR/2001/REC-SVG-20010904/DTD/svg10.dtd">
<svg version="1.0" id="Layer_1" xmlns="http://www.w3.org/2000/svg" xmlns:xlink="http://www.w3.org/1999/xlink" x="0px" y="0px"
	 width="11.244px" height="14.173px" viewBox="0 0 11.244 14.173" enable-background="new 0 0 11.244 14.173" xml:space="preserve">
<g>
	<path fill="#283583" d="M0.741,0.683h5.531c2.313,0,4.201,1.252,4.201,3.662c0,1.195-0.559,2.101-1.387,2.717
		c1.233,0.559,2.158,1.58,2.158,3.141c0,2.64-2.197,3.97-4.528,3.97H0.741V0.683z M6.271,5.925c0.791,0,1.195-0.521,1.195-1.137
		c0-0.597-0.404-1.079-1.195-1.079H3.92v2.216H6.271z M6.657,11.167c1.002,0,1.426-0.636,1.426-1.311
		c0-0.694-0.424-1.233-1.426-1.233H3.92v2.544H6.657z"/>
	<path fill="#FFFFFF" d="M0.058,0h5.531C7.902,0,9.79,1.252,9.79,3.662c0,1.195-0.559,2.101-1.387,2.717
		c1.233,0.559,2.158,1.58,2.158,3.141c0,2.64-2.197,3.97-4.529,3.97H0.058V0z M5.589,5.242c0.79,0,1.195-0.521,1.195-1.137
		c0-0.597-0.405-1.079-1.195-1.079H3.238v2.216H5.589z M5.975,10.484c1.002,0,1.426-0.636,1.426-1.311
		c0-0.694-0.424-1.233-1.426-1.233H3.238v2.544H5.975z"/>
	<path fill="#32BEF0" d="M0,0h5.569c2.563,0,4.278,1.503,4.278,3.758c0,1.021-0.404,1.908-1.175,2.583
		C9.925,6.996,10.6,8.094,10.6,9.424c0,2.794-2.39,4.066-4.606,4.066H0V0z M5.994,13.047c2.004,0,4.163-1.137,4.163-3.623
		c0-1.619-1.079-2.447-1.966-2.853L7.844,6.417l0.308-0.211C8.981,5.589,9.405,4.76,9.405,3.758c0-1.542-1.002-3.314-3.835-3.314
		H0.443v12.604H5.994z M3.064,2.91h2.505c0.945,0,1.369,0.655,1.369,1.292c0,0.751-0.578,1.291-1.369,1.291H3.064V2.91z
		 M3.064,7.689h2.872c1.175,0,1.599,0.713,1.599,1.388c0,0.694-0.424,1.503-1.599,1.503H3.064V7.689z M5.569,5.049
		c0.675,0,0.925-0.463,0.925-0.848c0-0.424-0.25-0.848-0.925-0.848H3.508v1.696H5.569z M5.936,10.137
		c1.079,0,1.156-0.809,1.156-1.06c0-0.617-0.405-0.963-1.156-0.963H3.508v2.023H5.936z"/>
</g>
</svg>
