<?xml version="1.0" encoding="utf-8"?>
<!-- Generator: Adobe Illustrator 16.0.0, SVG Export Plug-In . SVG Version: 6.00 Build 0)  -->
<!DOCTYPE svg PUBLIC "-//W3C//DTD SVG 1.0//EN" "http://www.w3.org/TR/2001/REC-SVG-20010904/DTD/svg10.dtd">
<svg version="1.0" id="Layer_1" xmlns="http://www.w3.org/2000/svg" xmlns:xlink="http://www.w3.org/1999/xlink" x="0px" y="0px"
	 width="12.86px" height="14.173px" viewBox="0 0 12.86 14.173" enable-background="new 0 0 12.86 14.173" xml:space="preserve">
<g>
	<path fill="#283583" d="M0.729,7.405c0-3.736,3.033-6.75,6.768-6.75c2.238,0,4.161,1.073,5.363,2.719l-2.459,1.793
		C9.753,4.261,8.718,3.688,7.497,3.688c-2.052,0-3.735,1.664-3.735,3.717c0,2.071,1.683,3.735,3.735,3.735
		c1.221,0,2.256-0.592,2.904-1.479l2.459,1.775c-1.202,1.664-3.125,2.737-5.363,2.737C3.762,14.173,0.729,11.159,0.729,7.405z"/>
	<path fill="#FFFFFF" d="M0.074,6.75C0.074,3.014,3.107,0,6.842,0c2.238,0,4.161,1.073,5.363,2.719L9.746,4.512
		C9.098,3.606,8.063,3.033,6.842,3.033c-2.052,0-3.735,1.664-3.735,3.717c0,2.071,1.683,3.736,3.735,3.736
		c1.221,0,2.256-0.592,2.904-1.48l2.459,1.775c-1.202,1.664-3.125,2.737-5.363,2.737C3.107,13.518,0.074,10.503,0.074,6.75z"/>
	<path fill="#32BEF0" d="M0,6.75C0,3.033,3.033,0,6.768,0c2.145,0,4.124,0.98,5.473,2.903l-2.718,1.96L9.412,4.697
		C8.839,3.828,7.841,3.366,6.768,3.366c-1.886,0-3.403,1.516-3.403,3.384s1.517,3.384,3.403,3.384c1.073,0,2.071-0.462,2.644-1.331
		l0.111-0.167l2.718,1.96c-1.349,1.96-3.328,2.904-5.473,2.904C3.033,13.5,0,10.467,0,6.75z M6.768,13.074
		c1.941,0,3.717-0.869,4.882-2.385L9.616,9.209c-0.684,0.869-1.72,1.35-2.848,1.35c-2.108,0-3.828-1.701-3.828-3.809
		s1.72-3.81,3.828-3.81c1.128,0,2.164,0.481,2.848,1.35l2.034-1.479c-1.165-1.517-2.94-2.385-4.882-2.385
		c-3.495,0-6.343,2.829-6.343,6.324C0.425,10.245,3.273,13.074,6.768,13.074z"/>
</g>
</svg>
