<?xml version="1.0" encoding="utf-8"?>
<!-- Generator: Adobe Illustrator 16.0.0, SVG Export Plug-In . SVG Version: 6.00 Build 0)  -->
<!DOCTYPE svg PUBLIC "-//W3C//DTD SVG 1.0//EN" "http://www.w3.org/TR/2001/REC-SVG-20010904/DTD/svg10.dtd">
<svg version="1.0" id="Layer_1" xmlns="http://www.w3.org/2000/svg" xmlns:xlink="http://www.w3.org/1999/xlink" x="0px" y="0px"
	 width="12.67px" height="14.173px" viewBox="0 0 12.67 14.173" enable-background="new 0 0 12.67 14.173" xml:space="preserve">
<g>
	<path fill="#283583" d="M0.702,0.683h5.223c3.97,0,6.745,2.871,6.745,6.745c0,3.893-2.775,6.745-6.745,6.745H0.702V0.683z
		 M5.925,11.167c2.254,0,3.565-1.657,3.565-3.739c0-2.063-1.311-3.72-3.565-3.72H3.863v7.458H5.925z"/>
	<path fill="#FFFFFF" d="M0.02,0h5.223c3.97,0,6.745,2.871,6.745,6.745c0,3.893-2.775,6.745-6.745,6.745H0.02V0z M5.242,10.484
		c2.255,0,3.565-1.657,3.565-3.739c0-2.063-1.311-3.72-3.565-3.72H3.18v7.458H5.242z"/>
	<path fill="#32BEF0" d="M0,0h5.262c3.912,0,6.745,2.833,6.745,6.745S9.173,13.49,5.262,13.49H0V0z M5.262,13.047
		c3.662,0,6.302-2.64,6.302-6.302s-2.64-6.302-6.302-6.302H0.444v12.604H5.262z M3.064,2.91h2.197c2.177,0,3.681,1.581,3.681,3.835
		c0,2.254-1.503,3.835-3.681,3.835H3.064V2.91z M5.262,10.137c1.946,0,3.256-1.368,3.256-3.392c0-2.024-1.31-3.392-3.256-3.392
		H3.489v6.784H5.262z"/>
</g>
</svg>
