<?xml version="1.0" encoding="utf-8"?>
<!-- Generator: Adobe Illustrator 16.0.0, SVG Export Plug-In . SVG Version: 6.00 Build 0)  -->
<!DOCTYPE svg PUBLIC "-//W3C//DTD SVG 1.0//EN" "http://www.w3.org/TR/2001/REC-SVG-20010904/DTD/svg10.dtd">
<svg version="1.0" id="Layer_1" xmlns="http://www.w3.org/2000/svg" xmlns:xlink="http://www.w3.org/1999/xlink" x="0px" y="0px"
	 width="9.645px" height="14.173px" viewBox="0 0 9.645 14.173" enable-background="new 0 0 9.645 14.173" xml:space="preserve">
<g>
	<path fill="#283583" d="M0.76,0.683h8.73v3.025H3.94v2.216h4.953v2.872H3.94v2.371h5.705v3.006H0.76V0.683z"/>
	<path fill="#FFFFFF" d="M0.077,0h8.73v3.025h-5.55v2.216H8.21v2.872H3.257v2.371h5.705v3.006H0.077V0z"/>
	<path fill="#32BEF0" d="M0,0h8.865v3.353H3.489v1.715h4.798v3.199H3.489v1.87H9.02v3.354H0V0z M8.576,13.047V10.58H3.064V7.843
		h4.78V5.512h-4.78V2.91h5.377V0.443H0.444v12.604H8.576z"/>
</g>
</svg>
