<?xml version="1.0" encoding="utf-8"?>
<!-- Generator: Adobe Illustrator 16.0.0, SVG Export Plug-In . SVG Version: 6.00 Build 0)  -->
<!DOCTYPE svg PUBLIC "-//W3C//DTD SVG 1.0//EN" "http://www.w3.org/TR/2001/REC-SVG-20010904/DTD/svg10.dtd">
<svg version="1.0" id="Layer_1" xmlns="http://www.w3.org/2000/svg" xmlns:xlink="http://www.w3.org/1999/xlink" x="0px" y="0px"
	 width="13.655px" height="14.173px" viewBox="0 0 13.655 14.173" enable-background="new 0 0 13.655 14.173" xml:space="preserve">
<g>
	<path fill="#283583" d="M0.655,7.405c0-3.736,3.033-6.75,6.786-6.75c2.219,0,4.29,1.073,5.492,2.719l-2.459,1.793
		C9.827,4.261,8.662,3.688,7.441,3.688c-2.071,0-3.753,1.664-3.753,3.717c0,2.071,1.683,3.735,3.753,3.735
		c1.646,0,2.7-0.833,3.107-2.146H6.461V5.962h7.193v1.591c0,3.846-2.312,6.62-6.213,6.62C3.688,14.173,0.655,11.159,0.655,7.405z"/>
	<path fill="#FFFFFF" d="M0,6.75C0,3.014,3.033,0,6.786,0c2.219,0,4.29,1.073,5.492,2.719L9.819,4.512
		C9.171,3.606,8.006,3.033,6.786,3.033c-2.071,0-3.753,1.664-3.753,3.717c0,2.071,1.683,3.736,3.753,3.736
		c1.646,0,2.7-0.833,3.106-2.146H5.806V5.307H13v1.591c0,3.846-2.312,6.62-6.213,6.62C3.033,13.518,0,10.503,0,6.75z"/>
	<path fill="#32BEF0" d="M0,6.75C0,3.033,3.033,0,6.768,0c2.182,0,4.309,0.999,5.622,2.903l-2.718,1.96L9.542,4.697
		C8.932,3.92,7.877,3.366,6.768,3.366c-1.886,0-3.402,1.516-3.402,3.384s1.517,3.384,3.402,3.384c1.313,0,2.274-0.573,2.719-1.627
		H5.621V5.141H13v1.757c0,1.904-0.555,3.532-1.646,4.734c-1.11,1.22-2.7,1.868-4.586,1.868C3.033,13.5,0,10.467,0,6.75z
		 M6.768,13.074c3.532,0,5.825-2.422,5.825-6.176V5.566H6.047v2.515h4.031c-0.462,1.701-1.683,2.478-3.31,2.478
		c-2.108,0-3.828-1.701-3.828-3.809s1.72-3.81,3.828-3.81c1.184,0,2.312,0.518,2.996,1.35l2.034-1.479
		c-1.146-1.479-3.051-2.385-5.03-2.385c-3.495,0-6.343,2.829-6.343,6.324C0.425,10.245,3.272,13.074,6.768,13.074z"/>
</g>
</svg>
