<?xml version="1.0" encoding="utf-8"?>
<!-- Generator: Adobe Illustrator 16.0.0, SVG Export Plug-In . SVG Version: 6.00 Build 0)  -->
<!DOCTYPE svg PUBLIC "-//W3C//DTD SVG 1.0//EN" "http://www.w3.org/TR/2001/REC-SVG-20010904/DTD/svg10.dtd">
<svg version="1.0" id="Layer_1" xmlns="http://www.w3.org/2000/svg" xmlns:xlink="http://www.w3.org/1999/xlink" x="0px" y="0px"
	 width="11.938px" height="14.173px" viewBox="0 0 11.938 14.173" enable-background="new 0 0 11.938 14.173" xml:space="preserve">
<g>
	<path fill="#283583" d="M0.721,0.683h3.161v4.953h4.895V0.683h3.161v13.49H8.777V8.642H3.882v5.531H0.721V0.683z"/>
	<path fill="#FFFFFF" d="M0.039,0h3.161v4.953h4.895V0h3.161v13.49H8.094V7.959H3.199v5.531H0.039V0z"/>
	<path fill="#32BEF0" d="M0,0h3.508v4.779h4.297V0h3.488v13.49H7.805V8.133H3.508v5.357H0V0z M3.064,13.047V7.689h5.165v5.358h2.621
		V0.443H8.229v4.779H3.064V0.443H0.443v12.604H3.064z"/>
</g>
</svg>
