<?xml version="1.0" encoding="utf-8"?>
<!-- Generator: Adobe Illustrator 16.0.0, SVG Export Plug-In . SVG Version: 6.00 Build 0)  -->
<!DOCTYPE svg PUBLIC "-//W3C//DTD SVG 1.0//EN" "http://www.w3.org/TR/2001/REC-SVG-20010904/DTD/svg10.dtd">
<svg version="1.0" id="Layer_1" xmlns="http://www.w3.org/2000/svg" xmlns:xlink="http://www.w3.org/1999/xlink" x="0px" y="0px"
	 width="9.643px" height="14.173px" viewBox="0 0 9.643 14.173" enable-background="new 0 0 9.643 14.173" xml:space="preserve">
<g>
	<path fill="#283583" d="M0.721,9.93l3.112-0.151c0,0.717,0.471,1.302,1.358,1.302c1.037,0,1.358-0.773,1.358-1.735V0.668h3.093
		v8.676c0,2.923-1.434,4.829-4.452,4.829C2.682,14.173,0.551,12.702,0.721,9.93z"/>
	<path fill="#FFFFFF" d="M0.052,9.261L3.165,9.11c0,0.717,0.471,1.302,1.358,1.302c1.037,0,1.358-0.773,1.358-1.735V0h3.094v8.676
		c0,2.923-1.434,4.829-4.452,4.829C2.014,13.505-0.117,12.033,0.052,9.261z"/>
	<path fill="#32BEF0" d="M0.996,12.128c-0.717-0.773-1.075-1.792-0.981-3.169l3.433-0.151c0,0.849,0.434,1.245,1.094,1.245
		c0.471,0,1.094-0.151,1.094-1.452V0h3.433v8.601c0,3.093-1.641,4.885-4.526,4.885C3.07,13.486,1.806,12.995,0.996,12.128z
		 M1.297,11.826c0.755,0.792,1.905,1.226,3.245,1.226c2.641,0,4.093-1.584,4.093-4.451V0.434H6.069v8.167
		c0,1.565-0.83,1.886-1.527,1.886c-0.812,0-1.396-0.49-1.509-1.244L0.43,9.374C0.411,10.355,0.712,11.203,1.297,11.826z"/>
</g>
</svg>
