<?xml version="1.0" encoding="utf-8"?>
<!-- Generator: Adobe Illustrator 16.0.0, SVG Export Plug-In . SVG Version: 6.00 Build 0)  -->
<!DOCTYPE svg PUBLIC "-//W3C//DTD SVG 1.0//EN" "http://www.w3.org/TR/2001/REC-SVG-20010904/DTD/svg10.dtd">
<svg version="1.0" id="Layer_1" xmlns="http://www.w3.org/2000/svg" xmlns:xlink="http://www.w3.org/1999/xlink" x="0px" y="0px"
	 width="11.899px" height="14.173px" viewBox="0 0 11.899 14.173" enable-background="new 0 0 11.899 14.173" xml:space="preserve">
<g>
	<path fill="#283583" d="M0.817,0.683h3.161v5.28l4.144-5.28h3.643L6.773,6.908l5.126,7.266h-3.72L4.903,9.22l-0.925,1.156v3.797
		H0.817V0.683z"/>
	<path fill="#FFFFFF" d="M0.135,0h3.161v5.28L7.438,0h3.643L6.09,6.225l5.126,7.266H7.497L4.221,8.537L3.295,9.693v3.797H0.135V0z"
		/>
	<path fill="#32BEF0" d="M0,0h3.507v4.683L7.188,0h4.085L6.263,6.244l5.107,7.246H7.246L4.163,8.846L3.507,9.655v3.835H0V0z
		 M3.064,13.047V9.5l1.137-1.387l3.276,4.934h3.045L5.704,6.225l4.664-5.781H7.4L3.064,5.955V0.443H0.443v12.604H3.064z"/>
</g>
</svg>
