<?xml version="1.0" encoding="utf-8"?>
<!-- Generator: Adobe Illustrator 16.0.0, SVG Export Plug-In . SVG Version: 6.00 Build 0)  -->
<!DOCTYPE svg PUBLIC "-//W3C//DTD SVG 1.0//EN" "http://www.w3.org/TR/2001/REC-SVG-20010904/DTD/svg10.dtd">
<svg version="1.0" id="Layer_1" xmlns="http://www.w3.org/2000/svg" xmlns:xlink="http://www.w3.org/1999/xlink" x="0px" y="0px"
	 width="14.925px" height="14.173px" viewBox="0 0 14.925 14.173" enable-background="new 0 0 14.925 14.173" xml:space="preserve">
<g>
	<path fill="#283583" d="M0.683,0.683h3.218l3.913,6.206l3.912-6.206h3.199v13.49h-3.161V5.54l-3.43,5.319H7.293L3.863,5.54v8.634
		h-3.18V0.683z"/>
	<path fill="#FFFFFF" d="M0,0h3.218l3.913,6.206L11.042,0h3.199v13.49h-3.161V4.856l-3.43,5.319H6.61L3.18,4.856v8.634H0V0z"/>
	<path fill="#32BEF0" d="M0.019,0h3.489l3.604,5.781L10.734,0h3.488v13.49h-3.507V5.492l-3.064,4.779H6.572L3.508,5.492v7.998H0.019
		V0z M3.083,13.047V3.932l3.739,5.897h0.597l3.739-5.897v9.115h2.621V0.443h-2.814L7.111,6.629L3.257,0.443H0.463v12.604H3.083z"/>
</g>
</svg>
