<?xml version="1.0" encoding="utf-8"?>
<!-- Generator: Adobe Illustrator 16.0.0, SVG Export Plug-In . SVG Version: 6.00 Build 0)  -->
<!DOCTYPE svg PUBLIC "-//W3C//DTD SVG 1.0//EN" "http://www.w3.org/TR/2001/REC-SVG-20010904/DTD/svg10.dtd">
<svg version="1.0" id="Layer_1" xmlns="http://www.w3.org/2000/svg" xmlns:xlink="http://www.w3.org/1999/xlink" x="0px" y="0px"
	 width="11.918px" height="14.173px" viewBox="0 0 11.918 14.173" enable-background="new 0 0 11.918 14.173" xml:space="preserve">
<g>
	<path fill="#283583" d="M0.722,0.683h3.295l4.741,8.248V0.683h3.161v13.49H8.623L3.882,5.925v8.249H0.722V0.683z"/>
	<path fill="#FFFFFF" d="M0.039,0h3.295l4.741,8.248V0h3.161v13.49H7.94L3.199,5.242v8.249H0.039V0z"/>
	<path fill="#32BEF0" d="M0,0h3.546l4.24,7.381V0h3.507v13.49H7.748l-4.24-7.381v7.381H0V0z M3.064,13.047V4.471l4.934,8.576h2.853
		V0.443H8.229v8.576L3.295,0.443H0.443v12.604H3.064z"/>
</g>
</svg>
