<?xml version="1.0" encoding="utf-8"?>
<!-- Generator: Adobe Illustrator 16.0.0, SVG Export Plug-In . SVG Version: 6.00 Build 0)  -->
<!DOCTYPE svg PUBLIC "-//W3C//DTD SVG 1.0//EN" "http://www.w3.org/TR/2001/REC-SVG-20010904/DTD/svg10.dtd">
<svg version="1.0" id="Layer_1" xmlns="http://www.w3.org/2000/svg" xmlns:xlink="http://www.w3.org/1999/xlink" x="0px" y="0px"
	 width="14.229px" height="14.173px" viewBox="0 0 14.229 14.173" enable-background="new 0 0 14.229 14.173" xml:space="preserve">
<g>
	<path fill="#283583" d="M0.656,7.405c0-3.735,3.051-6.749,6.787-6.749c3.735,0,6.786,3.014,6.786,6.749
		c0,3.754-3.051,6.769-6.786,6.769C3.707,14.173,0.656,11.159,0.656,7.405z M7.442,11.141c2.07,0,3.753-1.665,3.753-3.736
		c0-2.052-1.683-3.717-3.753-3.717c-2.072,0-3.736,1.665-3.736,3.717C3.707,9.476,5.371,11.141,7.442,11.141z"/>
	<path fill="#FFFFFF" d="M0,6.75C0,3.014,3.051,0,6.787,0s6.786,3.014,6.786,6.75c0,3.753-3.051,6.768-6.786,6.768S0,10.503,0,6.75z
		 M6.787,10.485c2.071,0,3.754-1.665,3.754-3.735c0-2.053-1.683-3.717-3.754-3.717c-2.071,0-3.735,1.664-3.735,3.717
		C3.051,8.82,4.716,10.485,6.787,10.485z"/>
	<path fill="#32BEF0" d="M0.019,6.75C0.019,3.033,3.051,0,6.787,0s6.768,3.033,6.768,6.75s-3.033,6.75-6.768,6.75
		S0.019,10.467,0.019,6.75z M6.787,13.074c3.495,0,6.343-2.829,6.343-6.324s-2.848-6.324-6.343-6.324
		c-3.513,0-6.361,2.829-6.361,6.324S3.273,13.074,6.787,13.074z M6.787,2.94c2.108,0,3.828,1.702,3.828,3.81
		c0,2.108-1.72,3.809-3.828,3.809c-2.126,0-3.847-1.701-3.847-3.809C2.94,4.642,4.66,2.94,6.787,2.94z M6.787,10.133
		c1.886,0,3.421-1.516,3.421-3.383S8.673,3.366,6.787,3.366c-1.886,0-3.421,1.517-3.421,3.384S4.901,10.133,6.787,10.133z"/>
</g>
</svg>
