<?xml version="1.0" encoding="utf-8"?>
<!-- Generator: Adobe Illustrator 16.0.0, SVG Export Plug-In . SVG Version: 6.00 Build 0)  -->
<!DOCTYPE svg PUBLIC "-//W3C//DTD SVG 1.0//EN" "http://www.w3.org/TR/2001/REC-SVG-20010904/DTD/svg10.dtd">
<svg version="1.0" id="Layer_1" xmlns="http://www.w3.org/2000/svg" xmlns:xlink="http://www.w3.org/1999/xlink" x="0px" y="0px"
	 width="10.318px" height="14.173px" viewBox="0 0 10.318 14.173" enable-background="new 0 0 10.318 14.173" xml:space="preserve">
<g>
	<path fill="#283583" d="M0.741,0.683h5.068c2.273,0,4.509,1.734,4.509,4.664c0,2.93-2.235,4.664-4.509,4.664H3.901v4.163h-3.16
		V0.683z M5.79,6.985c0.867,0,1.426-0.751,1.426-1.638c0-0.886-0.559-1.638-1.426-1.638H3.901v3.276H5.79z"/>
	<path fill="#FFFFFF" d="M0.058,0h5.068c2.274,0,4.51,1.734,4.51,4.664c0,2.93-2.235,4.664-4.51,4.664H3.219v4.163H0.058V0z
		 M5.108,6.302c0.866,0,1.426-0.751,1.426-1.638c0-0.886-0.56-1.638-1.426-1.638H3.219v3.276H5.108z"/>
	<path fill="#32BEF0" d="M0,0h5.126c2.217,0,4.567,1.657,4.567,4.721c0,3.083-2.351,4.722-4.567,4.722H3.489v4.047H0V0z
		 M3.065,13.047V9.019h2.062c2.004,0,4.144-1.503,4.144-4.298c0-2.775-2.14-4.278-4.144-4.278H0.443v12.604H3.065z M3.065,2.91
		h2.043c0.905,0,1.6,0.791,1.6,1.812c0,1.041-0.694,1.812-1.6,1.812H3.065V2.91z M5.108,6.109c0.751,0,1.175-0.713,1.175-1.388
		c0-0.655-0.424-1.368-1.175-1.368H3.489v2.756H5.108z"/>
</g>
</svg>
