<?xml version="1.0" encoding="utf-8"?>
<!-- Generator: Adobe Illustrator 16.0.0, SVG Export Plug-In . SVG Version: 6.00 Build 0)  -->
<!DOCTYPE svg PUBLIC "-//W3C//DTD SVG 1.0//EN" "http://www.w3.org/TR/2001/REC-SVG-20010904/DTD/svg10.dtd">
<svg version="1.0" id="Layer_1" xmlns="http://www.w3.org/2000/svg" xmlns:xlink="http://www.w3.org/1999/xlink" x="0px" y="0px"
	 width="11.85px" height="14.173px" viewBox="0 0 11.85 14.173" enable-background="new 0 0 11.85 14.173" xml:space="preserve">
<g>
	<path fill="#283583" d="M5.311,11.742c-2.699-0.417-4.765-2.745-4.765-5.566c0-3.115,2.529-5.629,5.644-5.629
		c3.131,0,5.66,2.514,5.66,5.629c0,2.76-1.975,5.042-4.596,5.536c0.169,0.154,0.4,0.262,0.756,0.339
		c1.063,0.215,1.805-0.262,2.019-0.478l1.019,1.727c-0.339,0.401-1.203,0.957-2.559,0.864C6.606,14.024,5.62,12.852,5.311,11.742z
		 M6.189,9.29c1.727,0,3.131-1.388,3.131-3.115c0-1.712-1.404-3.1-3.131-3.1c-1.711,0-3.114,1.388-3.114,3.1
		C3.075,7.902,4.479,9.29,6.189,9.29z"/>
	<path fill="#FFFFFF" d="M4.764,11.195C2.065,10.779,0,8.45,0,5.628C0,2.514,2.528,0,5.645,0c3.13,0,5.659,2.514,5.659,5.628
		c0,2.76-1.975,5.042-4.597,5.536c0.171,0.154,0.402,0.262,0.757,0.339c1.063,0.216,1.804-0.262,2.02-0.478l1.018,1.727
		c-0.339,0.401-1.202,0.956-2.559,0.864C6.061,13.477,5.073,12.306,4.764,11.195z M5.645,8.744c1.726,0,3.13-1.389,3.13-3.115
		c0-1.712-1.404-3.099-3.13-3.099c-1.712,0-3.116,1.387-3.116,3.099C2.528,7.355,3.933,8.744,5.645,8.744z"/>
	<path fill="#32BEF0" d="M4.657,11.165C1.943,10.687,0,8.374,0,5.628C0,2.529,2.528,0,5.645,0c3.115,0,5.644,2.529,5.644,5.628
		c0,2.544-1.712,4.765-4.148,5.428c0.817,0.278,1.649,0.124,2.268-0.493l1.155,1.974c-0.462,0.555-1.295,0.987-2.422,0.987H7.849
		C5.598,13.37,4.857,11.796,4.657,11.165z M4.812,10.84l0.123,0.016l0.03,0.108c0.14,0.478,0.741,2.067,2.915,2.206
		c1.063,0.077,1.851-0.293,2.252-0.679l-0.818-1.388c-0.37,0.277-1.063,0.555-1.943,0.385c-0.369-0.077-0.755-0.215-1.063-0.617
		l0.339-0.063c2.482-0.447,4.302-2.652,4.302-5.181c0-2.914-2.374-5.273-5.304-5.273c-2.915,0-5.289,2.359-5.289,5.273
		C0.355,8.25,2.205,10.517,4.812,10.84z M5.645,2.452c1.772,0,3.207,1.419,3.207,3.177S7.417,8.805,5.645,8.805
		c-1.758,0-3.191-1.418-3.191-3.176S3.887,2.452,5.645,2.452z M5.645,8.45c1.572,0,2.852-1.264,2.852-2.822S7.217,2.807,5.645,2.807
		c-1.573,0-2.854,1.264-2.854,2.822S4.071,8.45,5.645,8.45z"/>
</g>
</svg>
