<?xml version="1.0" encoding="utf-8"?>
<!-- Generator: Adobe Illustrator 16.0.0, SVG Export Plug-In . SVG Version: 6.00 Build 0)  -->
<!DOCTYPE svg PUBLIC "-//W3C//DTD SVG 1.0//EN" "http://www.w3.org/TR/2001/REC-SVG-20010904/DTD/svg10.dtd">
<svg version="1.0" id="Layer_1" xmlns="http://www.w3.org/2000/svg" xmlns:xlink="http://www.w3.org/1999/xlink" x="0px" y="0px"
	 width="11.687px" height="14.173px" viewBox="0 0 11.687 14.173" enable-background="new 0 0 11.687 14.173" xml:space="preserve">
<g>
	<path fill="#283583" d="M0.76,0.683h5.377c2.408,0,4.605,1.465,4.605,4.433c0,2.158-1.06,3.526-2.524,4.182l3.469,4.876H8.063
		L5.058,9.702H3.939v4.471H0.76V0.683z M6.137,6.85c0.867,0,1.503-0.675,1.503-1.581c0-0.867-0.636-1.561-1.503-1.561H3.939V6.85
		H6.137z"/>
	<path fill="#FFFFFF" d="M0.077,0h5.377c2.408,0,4.606,1.465,4.606,4.433c0,2.158-1.061,3.526-2.525,4.182l3.469,4.876H7.381
		L4.375,9.019H3.258v4.471H0.077V0z M5.454,6.167c0.867,0,1.504-0.675,1.504-1.581c0-0.867-0.637-1.561-1.504-1.561H3.258v3.142
		H5.454z"/>
	<path fill="#32BEF0" d="M0,0h5.416c2.331,0,4.683,1.388,4.683,4.51c0,1.869-0.849,3.353-2.332,4.124l3.431,4.856H7.149L4.26,9.154
		H3.508v4.336H0V0z M3.064,13.047V8.73h1.427L7.4,13.047h2.949L7.092,8.441l0.251-0.097C8.846,7.689,9.655,6.321,9.655,4.51
		c0-2.814-2.12-4.066-4.239-4.066H0.443v12.604H3.064z M3.064,2.91h2.352c0.944,0,1.676,0.752,1.676,1.734
		c0,1.002-0.731,1.754-1.676,1.754H3.064V2.91z M5.416,5.955c0.713,0,1.233-0.54,1.233-1.311c0-0.732-0.54-1.291-1.233-1.291H3.508
		v2.602H5.416z"/>
</g>
</svg>
