<?xml version="1.0" encoding="utf-8"?>
<!-- Generator: Adobe Illustrator 16.0.0, SVG Export Plug-In . SVG Version: 6.00 Build 0)  -->
<!DOCTYPE svg PUBLIC "-//W3C//DTD SVG 1.0//EN" "http://www.w3.org/TR/2001/REC-SVG-20010904/DTD/svg10.dtd">
<svg version="1.0" id="Layer_1" xmlns="http://www.w3.org/2000/svg" xmlns:xlink="http://www.w3.org/1999/xlink" x="0px" y="0px"
	 width="10.843px" height="14.173px" viewBox="0 0 10.843 14.173" enable-background="new 0 0 10.843 14.173" xml:space="preserve">
<g>
	<path fill="#283583" d="M0.654,11.344l2.274-1.498c0.555,0.924,1.554,1.498,2.996,1.498c0.942,0,1.886-0.444,1.886-1.294
		c0-0.888-1.109-0.98-2.422-1.313C2.577,8.015,1.172,6.943,1.172,4.631c0-2.589,2.053-3.976,4.53-3.976
		c1.886,0,3.717,0.98,4.456,1.701L8.587,4.465C8.051,4.04,7.089,3.448,5.905,3.448c-0.998,0-1.774,0.37-1.774,1.091
		c0,0.628,0.462,0.961,1.868,1.294c2.829,0.665,4.844,1.405,4.844,4.031c0,2.848-2.533,4.309-4.844,4.309
		C3.705,14.173,1.468,13.267,0.654,11.344z"/>
	<path fill="#FFFFFF" d="M0,10.688L2.274,9.19c0.555,0.925,1.553,1.498,2.996,1.498c0.942,0,1.886-0.444,1.886-1.295
		c0-0.887-1.109-0.979-2.422-1.313C1.923,7.36,0.518,6.288,0.518,3.976C0.518,1.387,2.57,0,5.048,0c1.886,0,3.717,0.98,4.456,1.701
		L7.933,3.81C7.396,3.384,6.435,2.792,5.251,2.792c-0.998,0-1.774,0.37-1.774,1.091c0,0.629,0.462,0.961,1.867,1.295
		c2.83,0.665,4.845,1.405,4.845,4.031c0,2.848-2.533,4.309-4.845,4.309C3.051,13.518,0.813,12.611,0,10.688z"/>
	<path fill="#32BEF0" d="M0.074,10.485l2.551-1.683c0.63,1.091,1.572,1.553,2.83,1.553c0.795,0,1.608-0.37,1.608-1.054
		c0-0.536-0.555-0.685-1.608-0.925C5.271,8.321,5.066,8.284,4.863,8.229c-2.995-0.758-4.235-1.96-4.235-4.161
		C0.628,1.627,2.479,0,5.233,0c1.96,0,3.753,1.036,4.604,1.849L8.043,4.198L7.877,4.068C7.434,3.735,6.546,3.125,5.418,3.125
		c-0.721,0-1.498,0.222-1.498,0.851c0,0.407,0.277,0.721,1.646,1.036C8.21,5.64,10.41,6.38,10.41,9.117
		c0,2.885-2.514,4.383-4.881,4.383C2.958,13.5,0.942,12.5,0.074,10.485z M5.529,13.074c2.94,0,4.475-1.979,4.475-3.957
		c0-2.441-1.887-3.07-4.549-3.699c-1.239-0.277-1.961-0.61-1.961-1.442c0-0.777,0.759-1.276,1.924-1.276
		c1.128,0,2.034,0.518,2.552,0.906l1.294-1.72c-0.721-0.61-2.311-1.46-4.03-1.46c-2.534,0-4.18,1.423-4.18,3.643
		c0,1.979,1.091,3.051,3.92,3.754C5.177,7.877,5.362,7.915,5.547,7.97C6.583,8.21,7.47,8.414,7.47,9.302
		c0,0.961-1.016,1.46-2.015,1.46c-1.313,0-2.349-0.462-2.959-1.369L0.61,10.633C1.479,12.426,3.698,13.074,5.529,13.074z"/>
</g>
</svg>
