<?xml version="1.0" encoding="utf-8"?>
<!-- Generator: Adobe Illustrator 16.0.0, SVG Export Plug-In . SVG Version: 6.00 Build 0)  -->
<!DOCTYPE svg PUBLIC "-//W3C//DTD SVG 1.0//EN" "http://www.w3.org/TR/2001/REC-SVG-20010904/DTD/svg10.dtd">
<svg version="1.0" id="Layer_1" xmlns="http://www.w3.org/2000/svg" xmlns:xlink="http://www.w3.org/1999/xlink" x="0px" y="0px"
	 width="11.376px" height="14.173px" viewBox="0 0 11.376 14.173" enable-background="new 0 0 11.376 14.173" xml:space="preserve">
<g>
	<path fill="#283583" d="M0.668,8.866V0.669h3.098v8.008c0,1.548,0.943,2.398,2.266,2.398s2.248-0.85,2.248-2.398V0.669h3.097v8.196
		c0,3.419-2.247,5.308-5.345,5.308C2.935,14.173,0.668,12.285,0.668,8.866z"/>
	<path fill="#FFFFFF" d="M0,8.196V0h3.097v8.008c0,1.548,0.944,2.398,2.267,2.398S7.61,9.556,7.61,8.008V0h3.098v8.196
		c0,3.419-2.247,5.308-5.345,5.308S0,11.615,0,8.196z"/>
	<path fill="#32BEF0" d="M0.151,8.159V0h3.417v7.97c0,1.322,0.737,2.096,1.965,2.096c1.247,0,1.983-0.774,1.983-2.096V0h3.418v8.159
		c0,3.249-2.115,5.345-5.401,5.345C2.266,13.504,0.151,11.407,0.151,8.159z M5.533,13.069c3.079,0,4.967-1.889,4.967-4.911V0.434
		H7.932V7.97c0,1.529-0.944,2.53-2.398,2.53S3.154,9.5,3.154,7.97V0.434H0.565v7.725C0.565,11.181,2.474,13.069,5.533,13.069z"/>
</g>
</svg>
