<?xml version="1.0" encoding="utf-8"?>
<!-- Generator: Adobe Illustrator 16.0.0, SVG Export Plug-In . SVG Version: 6.00 Build 0)  -->
<!DOCTYPE svg PUBLIC "-//W3C//DTD SVG 1.0//EN" "http://www.w3.org/TR/2001/REC-SVG-20010904/DTD/svg10.dtd">
<svg version="1.0" id="Layer_1" xmlns="http://www.w3.org/2000/svg" xmlns:xlink="http://www.w3.org/1999/xlink" x="0px" y="0px"
	 width="19.818px" height="14.173px" viewBox="0 0 19.818 14.173" enable-background="new 0 0 19.818 14.173" xml:space="preserve">
<g>
	<path fill="#283583" d="M0.682,0.683h3.296l2.717,8.653l2.332-8.653h2.447l2.332,8.653l2.718-8.653h3.295l-4.413,13.49h-2.987
		L10.24,6.311l-2.158,7.863H5.095L0.682,0.683z"/>
	<path fill="#FFFFFF" d="M0,0h3.295l2.718,8.653L8.345,0h2.447l2.332,8.653L15.841,0h3.296l-4.413,13.49h-2.987L9.559,5.627
		L7.4,13.49H4.413L0,0z"/>
	<path fill="#32BEF0" d="M0.211,0h3.644l2.446,7.805L8.422,0h2.679l2.119,7.805L15.668,0h3.642l-4.394,13.49h-3.219L9.751,6.494
		L7.824,13.49H4.605L0.211,0z M4.934,13.047h2.563l2.255-8.21l2.274,8.21h2.582l4.104-12.604h-2.717l-2.813,8.923l-2.409-8.923
		H8.749L6.34,9.385L3.546,0.443H0.809L4.934,13.047z"/>
</g>
</svg>
