<?xml version="1.0" encoding="utf-8"?>
<!-- Generator: Adobe Illustrator 16.0.0, SVG Export Plug-In . SVG Version: 6.00 Build 0)  -->
<!DOCTYPE svg PUBLIC "-//W3C//DTD SVG 1.0//EN" "http://www.w3.org/TR/2001/REC-SVG-20010904/DTD/svg10.dtd">
<svg version="1.0" id="Layer_1" xmlns="http://www.w3.org/2000/svg" xmlns:xlink="http://www.w3.org/1999/xlink" x="0px" y="0px"
	 width="12.688px" height="14.173px" viewBox="0 0 12.688 14.173" enable-background="new 0 0 12.688 14.173" xml:space="preserve">
<g>
	<path fill="#283583" d="M4.941,6.85L1.318,0.683h3.314l2.042,3.681l2.044-3.681h3.314L8.43,6.85l4.259,7.323h-3.47L6.675,9.605
		l-2.543,4.568h-3.45L4.941,6.85z"/>
	<path fill="#FFFFFF" d="M4.259,6.167L0.636,0H3.95l2.043,3.681L8.036,0h3.314L7.747,6.167l4.26,7.323h-3.47L5.993,8.922L3.45,13.49
		H0L4.259,6.167z"/>
	<path fill="#32BEF0" d="M4.24,6.186L0.617,0h3.719l1.85,3.334L8.036,0h3.719L8.132,6.186l4.24,7.304H8.518L6.186,9.308L3.854,13.49
		H0L4.24,6.186z M3.604,13.047l2.581-4.625l2.583,4.625h2.853L7.612,6.186l3.372-5.743H8.286L6.186,4.24l-2.1-3.796H1.388
		l3.373,5.743l-4.009,6.861H3.604z"/>
</g>
</svg>
