<?xml version="1.0" encoding="utf-8"?>
<!-- Generator: Adobe Illustrator 16.0.0, SVG Export Plug-In . SVG Version: 6.00 Build 0)  -->
<!DOCTYPE svg PUBLIC "-//W3C//DTD SVG 1.0//EN" "http://www.w3.org/TR/2001/REC-SVG-20010904/DTD/svg10.dtd">
<svg version="1.0" id="Layer_1" xmlns="http://www.w3.org/2000/svg" xmlns:xlink="http://www.w3.org/1999/xlink" x="0px" y="0px"
	 width="12.611px" height="14.173px" viewBox="0 0 12.611 14.173" enable-background="new 0 0 12.611 14.173" xml:space="preserve">
<g>
	<path fill="#283583" d="M5.076,7.544L0.701,0.683h3.488l2.467,4.008l2.467-4.008h3.488L8.236,7.544v6.629h-3.16V7.544z"/>
	<path fill="#FFFFFF" d="M4.394,6.861L0.02,0h3.488l2.467,4.008L8.441,0h3.487L7.554,6.861v6.629h-3.16V6.861z"/>
	<path fill="#32BEF0" d="M4.414,6.918L0,0h3.894l2.254,3.7L8.422,0h3.893L7.901,6.918v6.572H4.414V6.918z M4.837,6.784v6.263h2.641
		V6.784l4.047-6.34H8.673L6.147,4.529L3.643,0.443H0.791L4.837,6.784z"/>
</g>
</svg>
