<?xml version="1.0" encoding="utf-8"?>
<!-- Generator: Adobe Illustrator 16.0.0, SVG Export Plug-In . SVG Version: 6.00 Build 0)  -->
<!DOCTYPE svg PUBLIC "-//W3C//DTD SVG 1.0//EN" "http://www.w3.org/TR/2001/REC-SVG-20010904/DTD/svg10.dtd">
<svg version="1.0" id="Layer_1" xmlns="http://www.w3.org/2000/svg" xmlns:xlink="http://www.w3.org/1999/xlink" x="0px" y="0px"
	 width="10.146px" height="14.173px" viewBox="0 0 10.146 14.173" enable-background="new 0 0 10.146 14.173" xml:space="preserve">
<g>
	<path fill="#283583" d="M0.683,11.147l5.531-7.458H0.817V0.683h8.884v3.006l-5.55,7.458h5.994v3.026H0.683V11.147z"/>
	<path fill="#FFFFFF" d="M0,10.464l5.531-7.458H0.135V0h8.884v3.006l-5.55,7.458h5.994v3.026H0V10.464z"/>
	<path fill="#32BEF0" d="M0.116,10.291l5.165-6.938H0.271V0h9.019v3.199l-5.146,6.938h5.59v3.354H0.116V10.291z M9.289,13.047V10.58
		H3.276l5.569-7.516V0.443H0.714V2.91h5.434L0.56,10.426v2.621H9.289z"/>
</g>
</svg>
